<mxfile host="app.diagrams.net" modified="2023-11-02T14:35:07.989Z" agent="Mozilla/5.0 (Macintosh; Intel Mac OS X 10_15_7) AppleWebKit/537.36 (KHTML, like Gecko) Chrome/118.0.0.0 Safari/537.36" etag="J8EcWOmVXL7mlAOp83O-" version="22.0.8" type="github">
  <diagram name="Page-1" id="8taoyjs-QUBEsXyyqBqw">
    <mxGraphModel dx="2556" dy="2159" grid="1" gridSize="10" guides="1" tooltips="1" connect="1" arrows="1" fold="1" page="1" pageScale="1" pageWidth="850" pageHeight="1100" math="0" shadow="0">
      <root>
        <mxCell id="0" />
        <mxCell id="1" parent="0" />
        <mxCell id="daoT6OAxx24oOpccv14M-5" value="" style="rounded=1;whiteSpace=wrap;html=1;fillColor=#fff2cc;strokeColor=#d6b656;" vertex="1" parent="1">
          <mxGeometry x="-440" y="-340" width="1980" height="1640" as="geometry" />
        </mxCell>
        <mxCell id="daoT6OAxx24oOpccv14M-6" style="edgeStyle=orthogonalEdgeStyle;rounded=0;orthogonalLoop=1;jettySize=auto;html=1;" edge="1" parent="1" source="daoT6OAxx24oOpccv14M-1" target="daoT6OAxx24oOpccv14M-2">
          <mxGeometry relative="1" as="geometry" />
        </mxCell>
        <mxCell id="daoT6OAxx24oOpccv14M-7" style="edgeStyle=orthogonalEdgeStyle;rounded=0;orthogonalLoop=1;jettySize=auto;html=1;entryX=0;entryY=0.75;entryDx=0;entryDy=0;" edge="1" parent="1" source="daoT6OAxx24oOpccv14M-1" target="daoT6OAxx24oOpccv14M-3">
          <mxGeometry relative="1" as="geometry" />
        </mxCell>
        <mxCell id="daoT6OAxx24oOpccv14M-1" value="" style="sketch=0;points=[[0,0,0],[0.25,0,0],[0.5,0,0],[0.75,0,0],[1,0,0],[0,1,0],[0.25,1,0],[0.5,1,0],[0.75,1,0],[1,1,0],[0,0.25,0],[0,0.5,0],[0,0.75,0],[1,0.25,0],[1,0.5,0],[1,0.75,0]];outlineConnect=0;fontColor=#232F3E;fillColor=#01A88D;strokeColor=#ffffff;dashed=0;verticalLabelPosition=bottom;verticalAlign=top;align=center;html=1;fontSize=12;fontStyle=0;aspect=fixed;shape=mxgraph.aws4.resourceIcon;resIcon=mxgraph.aws4.desktop_and_app_streaming;" vertex="1" parent="1">
          <mxGeometry x="50" y="210" width="78" height="78" as="geometry" />
        </mxCell>
        <mxCell id="daoT6OAxx24oOpccv14M-2" value="" style="rounded=0;whiteSpace=wrap;html=1;" vertex="1" parent="1">
          <mxGeometry x="250" y="80" width="650" height="170" as="geometry" />
        </mxCell>
        <mxCell id="daoT6OAxx24oOpccv14M-3" value="" style="rounded=0;whiteSpace=wrap;html=1;" vertex="1" parent="1">
          <mxGeometry x="250" y="280" width="650" height="170" as="geometry" />
        </mxCell>
        <mxCell id="daoT6OAxx24oOpccv14M-4" value="" style="rounded=0;whiteSpace=wrap;html=1;" vertex="1" parent="1">
          <mxGeometry x="950" y="80" width="280" height="370" as="geometry" />
        </mxCell>
        <mxCell id="daoT6OAxx24oOpccv14M-8" value="" style="verticalLabelPosition=bottom;html=1;verticalAlign=top;align=center;strokeColor=none;fillColor=#00BEF2;shape=mxgraph.azure.content_delivery_network;" vertex="1" parent="1">
          <mxGeometry x="310" y="122" width="90" height="70" as="geometry" />
        </mxCell>
        <mxCell id="daoT6OAxx24oOpccv14M-9" value="" style="image;sketch=0;aspect=fixed;html=1;points=[];align=center;fontSize=12;image=img/lib/mscae/BlobBlock.svg;" vertex="1" parent="1">
          <mxGeometry x="730" y="130" width="88.1" height="74" as="geometry" />
        </mxCell>
        <mxCell id="daoT6OAxx24oOpccv14M-12" value="Static Content" style="text;html=1;strokeColor=none;fillColor=none;align=center;verticalAlign=middle;whiteSpace=wrap;rounded=0;" vertex="1" parent="1">
          <mxGeometry x="260" y="80" width="80" height="30" as="geometry" />
        </mxCell>
        <mxCell id="daoT6OAxx24oOpccv14M-13" value="Api" style="text;html=1;strokeColor=none;fillColor=none;align=center;verticalAlign=middle;whiteSpace=wrap;rounded=0;" vertex="1" parent="1">
          <mxGeometry x="245" y="280" width="60" height="30" as="geometry" />
        </mxCell>
        <mxCell id="daoT6OAxx24oOpccv14M-14" value="Azure Monitor" style="text;html=1;strokeColor=none;fillColor=none;align=center;verticalAlign=middle;whiteSpace=wrap;rounded=0;" vertex="1" parent="1">
          <mxGeometry x="1040" y="380" width="106" height="30" as="geometry" />
        </mxCell>
        <mxCell id="daoT6OAxx24oOpccv14M-15" value="Text" style="text;html=1;strokeColor=none;fillColor=none;align=center;verticalAlign=middle;whiteSpace=wrap;rounded=0;" vertex="1" parent="1">
          <mxGeometry x="1150" y="230" width="60" height="30" as="geometry" />
        </mxCell>
        <mxCell id="daoT6OAxx24oOpccv14M-16" value="Text" style="text;html=1;strokeColor=none;fillColor=none;align=center;verticalAlign=middle;whiteSpace=wrap;rounded=0;" vertex="1" parent="1">
          <mxGeometry x="980" y="230" width="60" height="30" as="geometry" />
        </mxCell>
        <mxCell id="daoT6OAxx24oOpccv14M-17" value="Content Dilevery Network" style="text;html=1;strokeColor=none;fillColor=none;align=center;verticalAlign=middle;whiteSpace=wrap;rounded=0;" vertex="1" parent="1">
          <mxGeometry x="305" y="200" width="120" height="30" as="geometry" />
        </mxCell>
        <mxCell id="daoT6OAxx24oOpccv14M-18" value="Azure Blob Storage" style="text;html=1;strokeColor=none;fillColor=none;align=center;verticalAlign=middle;whiteSpace=wrap;rounded=0;" vertex="1" parent="1">
          <mxGeometry x="730" y="200" width="100" height="30" as="geometry" />
        </mxCell>
        <mxCell id="daoT6OAxx24oOpccv14M-19" value="Staticc website hosting&lt;br&gt;" style="text;html=1;strokeColor=none;fillColor=none;align=center;verticalAlign=middle;whiteSpace=wrap;rounded=0;" vertex="1" parent="1">
          <mxGeometry x="714.05" y="90" width="120" height="30" as="geometry" />
        </mxCell>
        <mxCell id="daoT6OAxx24oOpccv14M-20" value="" style="image;sketch=0;aspect=fixed;html=1;points=[];align=center;fontSize=12;image=img/lib/mscae/Azure_Pipelines.svg;" vertex="1" parent="1">
          <mxGeometry x="990" y="170" width="50" height="50" as="geometry" />
        </mxCell>
        <mxCell id="daoT6OAxx24oOpccv14M-21" value="" style="verticalLabelPosition=bottom;html=1;verticalAlign=top;align=center;strokeColor=none;fillColor=#00BEF2;shape=mxgraph.azure.github_code;pointerEvents=1;" vertex="1" parent="1">
          <mxGeometry x="1150" y="170" width="50" height="50" as="geometry" />
        </mxCell>
        <mxCell id="daoT6OAxx24oOpccv14M-22" value="" style="image;aspect=fixed;html=1;points=[];align=center;fontSize=12;image=img/lib/azure2/compute/Maintenance_Configuration.svg;" vertex="1" parent="1">
          <mxGeometry x="1056" y="310" width="68" height="64" as="geometry" />
        </mxCell>
        <mxCell id="daoT6OAxx24oOpccv14M-23" value="CI/CD" style="text;html=1;strokeColor=none;fillColor=none;align=center;verticalAlign=middle;whiteSpace=wrap;rounded=0;" vertex="1" parent="1">
          <mxGeometry x="1060" y="130" width="60" height="30" as="geometry" />
        </mxCell>
        <mxCell id="daoT6OAxx24oOpccv14M-29" value="&lt;b&gt;End-to-end monitoring&lt;/b&gt;" style="text;html=1;strokeColor=none;fillColor=none;align=center;verticalAlign=middle;whiteSpace=wrap;rounded=0;" vertex="1" parent="1">
          <mxGeometry x="1036" y="260" width="134" height="30" as="geometry" />
        </mxCell>
        <mxCell id="daoT6OAxx24oOpccv14M-30" value="API Mangment" style="image;aspect=fixed;html=1;points=[];align=center;fontSize=12;image=img/lib/azure2/app_services/API_Management_Services.svg;" vertex="1" parent="1">
          <mxGeometry x="310" y="335" width="65" height="60" as="geometry" />
        </mxCell>
        <mxCell id="daoT6OAxx24oOpccv14M-31" value="Function Apps" style="image;aspect=fixed;html=1;points=[];align=center;fontSize=12;image=img/lib/azure2/compute/Function_Apps.svg;" vertex="1" parent="1">
          <mxGeometry x="520" y="335" width="68" height="60" as="geometry" />
        </mxCell>
        <mxCell id="daoT6OAxx24oOpccv14M-32" value="Azure Cosmos DB" style="image;aspect=fixed;html=1;points=[];align=center;fontSize=12;image=img/lib/azure2/databases/Azure_Cosmos_DB.svg;" vertex="1" parent="1">
          <mxGeometry x="730" y="330" width="64" height="64" as="geometry" />
        </mxCell>
        <mxCell id="daoT6OAxx24oOpccv14M-33" value="" style="endArrow=classic;html=1;rounded=0;entryX=0.385;entryY=0.529;entryDx=0;entryDy=0;entryPerimeter=0;" edge="1" parent="1" target="daoT6OAxx24oOpccv14M-3">
          <mxGeometry width="50" height="50" relative="1" as="geometry">
            <mxPoint x="390" y="370" as="sourcePoint" />
            <mxPoint x="440" y="320" as="targetPoint" />
          </mxGeometry>
        </mxCell>
        <mxCell id="daoT6OAxx24oOpccv14M-35" value="" style="endArrow=classic;html=1;rounded=0;entryX=0.385;entryY=0.529;entryDx=0;entryDy=0;entryPerimeter=0;" edge="1" parent="1">
          <mxGeometry width="50" height="50" relative="1" as="geometry">
            <mxPoint x="604.05" y="374" as="sourcePoint" />
            <mxPoint x="714.05" y="374" as="targetPoint" />
          </mxGeometry>
        </mxCell>
        <mxCell id="daoT6OAxx24oOpccv14M-36" value="" style="endArrow=classic;html=1;rounded=0;" edge="1" parent="1">
          <mxGeometry width="50" height="50" relative="1" as="geometry">
            <mxPoint x="709.86" y="162.68" as="sourcePoint" />
            <mxPoint x="420" y="160" as="targetPoint" />
          </mxGeometry>
        </mxCell>
        <mxCell id="daoT6OAxx24oOpccv14M-38" style="edgeStyle=orthogonalEdgeStyle;rounded=0;orthogonalLoop=1;jettySize=auto;html=1;exitX=0.5;exitY=1;exitDx=0;exitDy=0;entryX=0.411;entryY=1.176;entryDx=0;entryDy=0;entryPerimeter=0;" edge="1" parent="1" source="daoT6OAxx24oOpccv14M-18" target="daoT6OAxx24oOpccv14M-18">
          <mxGeometry relative="1" as="geometry" />
        </mxCell>
        <mxCell id="daoT6OAxx24oOpccv14M-39" value="" style="rounded=1;whiteSpace=wrap;html=1;" vertex="1" parent="1">
          <mxGeometry x="250" y="510" width="830" height="360" as="geometry" />
        </mxCell>
        <mxCell id="daoT6OAxx24oOpccv14M-41" value="" style="endArrow=none;dashed=1;html=1;rounded=0;entryX=0.477;entryY=0.824;entryDx=0;entryDy=0;entryPerimeter=0;" edge="1" parent="1" target="daoT6OAxx24oOpccv14M-3">
          <mxGeometry width="50" height="50" relative="1" as="geometry">
            <mxPoint x="560" y="500" as="sourcePoint" />
            <mxPoint x="578" y="420" as="targetPoint" />
          </mxGeometry>
        </mxCell>
        <mxCell id="daoT6OAxx24oOpccv14M-43" value="" style="rounded=1;whiteSpace=wrap;html=1;" vertex="1" parent="1">
          <mxGeometry x="280" y="550" width="120" height="60" as="geometry" />
        </mxCell>
        <mxCell id="daoT6OAxx24oOpccv14M-45" value="" style="rounded=1;whiteSpace=wrap;html=1;" vertex="1" parent="1">
          <mxGeometry x="674" y="550" width="120" height="60" as="geometry" />
        </mxCell>
        <mxCell id="daoT6OAxx24oOpccv14M-46" value="" style="rounded=1;whiteSpace=wrap;html=1;" vertex="1" parent="1">
          <mxGeometry x="282.5" y="620" width="120" height="60" as="geometry" />
        </mxCell>
        <mxCell id="daoT6OAxx24oOpccv14M-47" value="" style="rounded=1;whiteSpace=wrap;html=1;" vertex="1" parent="1">
          <mxGeometry x="410" y="550" width="120" height="60" as="geometry" />
        </mxCell>
        <mxCell id="daoT6OAxx24oOpccv14M-48" value="" style="rounded=1;whiteSpace=wrap;html=1;" vertex="1" parent="1">
          <mxGeometry x="540" y="550" width="120" height="60" as="geometry" />
        </mxCell>
        <mxCell id="daoT6OAxx24oOpccv14M-49" value="" style="rounded=1;whiteSpace=wrap;html=1;" vertex="1" parent="1">
          <mxGeometry x="810" y="550" width="120" height="60" as="geometry" />
        </mxCell>
        <mxCell id="daoT6OAxx24oOpccv14M-50" value="" style="rounded=1;whiteSpace=wrap;html=1;" vertex="1" parent="1">
          <mxGeometry x="940" y="550" width="120" height="60" as="geometry" />
        </mxCell>
        <mxCell id="daoT6OAxx24oOpccv14M-51" value="" style="endArrow=none;dashed=1;html=1;rounded=0;entryX=0.477;entryY=0.824;entryDx=0;entryDy=0;entryPerimeter=0;" edge="1" parent="1">
          <mxGeometry width="50" height="50" relative="1" as="geometry">
            <mxPoint x="340" y="500" as="sourcePoint" />
            <mxPoint x="340" y="420" as="targetPoint" />
          </mxGeometry>
        </mxCell>
        <mxCell id="daoT6OAxx24oOpccv14M-55" value="" style="rounded=1;whiteSpace=wrap;html=1;" vertex="1" parent="1">
          <mxGeometry x="674" y="620" width="120" height="60" as="geometry" />
        </mxCell>
        <mxCell id="daoT6OAxx24oOpccv14M-56" value="" style="rounded=1;whiteSpace=wrap;html=1;" vertex="1" parent="1">
          <mxGeometry x="810" y="620" width="120" height="60" as="geometry" />
        </mxCell>
        <mxCell id="daoT6OAxx24oOpccv14M-57" value="" style="rounded=1;whiteSpace=wrap;html=1;" vertex="1" parent="1">
          <mxGeometry x="940" y="620" width="120" height="60" as="geometry" />
        </mxCell>
        <mxCell id="daoT6OAxx24oOpccv14M-59" value="" style="rounded=1;whiteSpace=wrap;html=1;" vertex="1" parent="1">
          <mxGeometry x="282.5" y="690" width="120" height="60" as="geometry" />
        </mxCell>
        <mxCell id="daoT6OAxx24oOpccv14M-60" value="" style="rounded=1;whiteSpace=wrap;html=1;" vertex="1" parent="1">
          <mxGeometry x="540" y="620" width="120" height="60" as="geometry" />
        </mxCell>
        <mxCell id="daoT6OAxx24oOpccv14M-61" value="" style="rounded=1;whiteSpace=wrap;html=1;" vertex="1" parent="1">
          <mxGeometry x="410" y="620" width="120" height="60" as="geometry" />
        </mxCell>
        <mxCell id="daoT6OAxx24oOpccv14M-62" value="" style="rounded=1;whiteSpace=wrap;html=1;" vertex="1" parent="1">
          <mxGeometry x="680" y="690" width="120" height="60" as="geometry" />
        </mxCell>
        <mxCell id="daoT6OAxx24oOpccv14M-63" value="" style="rounded=1;whiteSpace=wrap;html=1;" vertex="1" parent="1">
          <mxGeometry x="810" y="690" width="120" height="60" as="geometry" />
        </mxCell>
        <mxCell id="daoT6OAxx24oOpccv14M-64" value="" style="rounded=1;whiteSpace=wrap;html=1;" vertex="1" parent="1">
          <mxGeometry x="940" y="690" width="120" height="60" as="geometry" />
        </mxCell>
        <mxCell id="daoT6OAxx24oOpccv14M-65" value="" style="rounded=1;whiteSpace=wrap;html=1;" vertex="1" parent="1">
          <mxGeometry x="282.5" y="760" width="120" height="60" as="geometry" />
        </mxCell>
        <mxCell id="daoT6OAxx24oOpccv14M-66" value="" style="rounded=1;whiteSpace=wrap;html=1;" vertex="1" parent="1">
          <mxGeometry x="540" y="690" width="120" height="60" as="geometry" />
        </mxCell>
        <mxCell id="daoT6OAxx24oOpccv14M-67" value="" style="rounded=1;whiteSpace=wrap;html=1;" vertex="1" parent="1">
          <mxGeometry x="410" y="690" width="120" height="60" as="geometry" />
        </mxCell>
        <mxCell id="daoT6OAxx24oOpccv14M-68" value="" style="rounded=1;whiteSpace=wrap;html=1;" vertex="1" parent="1">
          <mxGeometry x="540" y="760" width="120" height="60" as="geometry" />
        </mxCell>
        <mxCell id="daoT6OAxx24oOpccv14M-69" value="" style="rounded=1;whiteSpace=wrap;html=1;" vertex="1" parent="1">
          <mxGeometry x="410" y="760" width="120" height="60" as="geometry" />
        </mxCell>
        <mxCell id="daoT6OAxx24oOpccv14M-70" value="" style="rounded=1;whiteSpace=wrap;html=1;" vertex="1" parent="1">
          <mxGeometry x="680" y="760" width="120" height="60" as="geometry" />
        </mxCell>
        <mxCell id="daoT6OAxx24oOpccv14M-71" value="" style="rounded=1;whiteSpace=wrap;html=1;" vertex="1" parent="1">
          <mxGeometry x="810" y="760" width="120" height="60" as="geometry" />
        </mxCell>
        <mxCell id="daoT6OAxx24oOpccv14M-72" value="" style="rounded=1;whiteSpace=wrap;html=1;" vertex="1" parent="1">
          <mxGeometry x="940" y="760" width="120" height="60" as="geometry" />
        </mxCell>
      </root>
    </mxGraphModel>
  </diagram>
</mxfile>
